<svg version="1.1" xmlns="http://www.w3.org/2000/svg" xmlns:xlink="http://www.w3.org/1999/xlink" viewBox="-6.4 -6.4 76.80 76.80" xml:space="preserve" width="196px" height="196px" fill="#000000" transform="matrix(-1, 0, 0, 1, 0, 0)"><g id="SVGRepo_bgCarrier" stroke-width="0" transform="translate(0.9600000000000009,0.9600000000000009), scale(0.97)"><path transform="translate(-6.4, -6.4), scale(2.4)" d="M16,31.533774632428376C20.33041142623908,31.24266038142696,22.747387472097614,26.932067930587813,25.433062752354527,23.52261652066054C28.086459511433215,20.154142532817936,31.954641216841058,16.75590154680429,30.918368772038583,12.5949796792364C29.891137786587493,8.470361783774099,24.990776562266323,7.068607960064912,20.982723575267805,5.653267882750999C17.670639681052798,4.483691260357364,14.26172130716933,4.3309462410387916,10.967465858083543,5.549835175329669C7.128769047684411,6.970169796189648,3.0236537831739394,8.854258861608141,1.7866558649914381,12.755896951922782C0.4589325352376854,16.94369374658347,2.1787228653207,21.404741455345565,4.830149528412502,24.9076585088866C7.578988828673836,28.539271706553173,11.45561856987596,31.839273132704655,16,31.533774632428376" fill="#E0E0D1" strokewidth="0"></path></g><g id="SVGRepo_tracerCarrier" stroke-linecap="round" stroke-linejoin="round" stroke="#CCCCCC" stroke-width="0.8960000000000001"> <style type="text/css"> .st0{fill:#536688;} .st1{opacity:0.2;} .st2{fill:#231F20;} .st3{fill:#E0E0D1;} .st4{fill:#4F5D73;} </style> <g id="Layer_1"> <g> <circle class="st0" cx="32" cy="32" r="32"></circle> </g> <g class="st1"> <path class="st2" d="M52,50c0,2.2-1.8,4-4,4H16c-2.2,0-4-1.8-4-4V22c0-2.2,1.8-4,4-4h32c2.2,0,4,1.8,4,4V50z"></path> </g> <g> <path class="st3" d="M52,48c0,2.2-1.8,4-4,4H16c-2.2,0-4-1.8-4-4V20c0-2.2,1.8-4,4-4h32c2.2,0,4,1.8,4,4V48z"></path> </g> <g class="st1"> <path class="st2" d="M52,46c0,2.2-1.8,4-4,4H16c-2.2,0-4-1.8-4-4V18c0-2.2,1.8-4,4-4h32c2.2,0,4,1.8,4,4V46z"></path> </g> <g> <path class="st3" d="M52,44c0,2.2-1.8,4-4,4H16c-2.2,0-4-1.8-4-4V16c0-2.2,1.8-4,4-4h32c2.2,0,4,1.8,4,4V44z"></path> </g> <g> <rect x="16" y="24" class="st4" width="12" height="12"></rect> </g> <g> <rect x="36" y="27" class="st4" width="12" height="1"></rect> </g> <g> <rect x="36" y="25" class="st4" width="12" height="1"></rect> </g> <g> <rect x="32" y="24" class="st4" width="3" height="4"></rect> </g> <g> <rect x="32" y="30" class="st4" width="16" height="1"></rect> </g> <g> <rect x="32" y="32" class="st4" width="16" height="1"></rect> </g> <g> <rect x="32" y="34" class="st4" width="16" height="1"></rect> </g> <g> <rect x="32" y="36" class="st4" width="16" height="1"></rect> </g> <g> <rect x="35.9" y="39" class="st4" width="12.1" height="1"></rect> </g> <g> <rect x="16" y="39" class="st4" width="12" height="1"></rect> </g> <g> <rect x="16" y="41" class="st4" width="12" height="1"></rect> </g> <g> <rect x="16" y="43" class="st4" width="12" height="1"></rect> </g> <g> <rect x="16" y="45" class="st4" width="12" height="1"></rect> </g> <g> <rect x="32" y="41" class="st4" width="16" height="1"></rect> </g> <g> <rect x="32" y="43" class="st4" width="16" height="1"></rect> </g> <g> <rect x="32" y="45" class="st4" width="16" height="1"></rect> </g> <g> <circle class="st3" cx="24" cy="28" r="2"></circle> </g> <g> <rect x="16" y="16" class="st4" width="32" height="4"></rect> </g> <g> <g> <path class="st3" d="M27,35v-2.4l-0.8-0.8c-0.5-0.5-1.3-0.5-1.8,0l-0.8,0.8l-1.9-1.9c-1-1-2.6-1-3.5,0L17,31.9V35H27z"></path> </g> </g> </g> <g id="Layer_2"> </g> </g><g id="SVGRepo_iconCarrier"> <style type="text/css"> .st0{fill:#536688;} .st1{opacity:0.2;} .st2{fill:#231F20;} .st3{fill:#E0E0D1;} .st4{fill:#4F5D73;} </style> <g id="Layer_1"> <g> <circle class="st0" cx="32" cy="32" r="32"></circle> </g> <g class="st1"> <path class="st2" d="M52,50c0,2.2-1.8,4-4,4H16c-2.2,0-4-1.8-4-4V22c0-2.2,1.8-4,4-4h32c2.2,0,4,1.8,4,4V50z"></path> </g> <g> <path class="st3" d="M52,48c0,2.2-1.8,4-4,4H16c-2.2,0-4-1.8-4-4V20c0-2.2,1.8-4,4-4h32c2.2,0,4,1.8,4,4V48z"></path> </g> <g class="st1"> <path class="st2" d="M52,46c0,2.2-1.8,4-4,4H16c-2.2,0-4-1.8-4-4V18c0-2.2,1.8-4,4-4h32c2.2,0,4,1.8,4,4V46z"></path> </g> <g> <path class="st3" d="M52,44c0,2.2-1.8,4-4,4H16c-2.2,0-4-1.8-4-4V16c0-2.2,1.8-4,4-4h32c2.2,0,4,1.8,4,4V44z"></path> </g> <g> <rect x="16" y="24" class="st4" width="12" height="12"></rect> </g> <g> <rect x="36" y="27" class="st4" width="12" height="1"></rect> </g> <g> <rect x="36" y="25" class="st4" width="12" height="1"></rect> </g> <g> <rect x="32" y="24" class="st4" width="3" height="4"></rect> </g> <g> <rect x="32" y="30" class="st4" width="16" height="1"></rect> </g> <g> <rect x="32" y="32" class="st4" width="16" height="1"></rect> </g> <g> <rect x="32" y="34" class="st4" width="16" height="1"></rect> </g> <g> <rect x="32" y="36" class="st4" width="16" height="1"></rect> </g> <g> <rect x="35.9" y="39" class="st4" width="12.1" height="1"></rect> </g> <g> <rect x="16" y="39" class="st4" width="12" height="1"></rect> </g> <g> <rect x="16" y="41" class="st4" width="12" height="1"></rect> </g> <g> <rect x="16" y="43" class="st4" width="12" height="1"></rect> </g> <g> <rect x="16" y="45" class="st4" width="12" height="1"></rect> </g> <g> <rect x="32" y="41" class="st4" width="16" height="1"></rect> </g> <g> <rect x="32" y="43" class="st4" width="16" height="1"></rect> </g> <g> <rect x="32" y="45" class="st4" width="16" height="1"></rect> </g> <g> <circle class="st3" cx="24" cy="28" r="2"></circle> </g> <g> <rect x="16" y="16" class="st4" width="32" height="4"></rect> </g> <g> <g> <path class="st3" d="M27,35v-2.4l-0.8-0.8c-0.5-0.5-1.3-0.5-1.8,0l-0.8,0.8l-1.9-1.9c-1-1-2.6-1-3.5,0L17,31.9V35H27z"></path> </g> </g> </g> <g id="Layer_2"> </g> </g></svg>